<?xml version="1.0" standalone="no"?>
<!DOCTYPE svg PUBLIC "-//W3C//DTD SVG 20010904//EN"
 "http://www.w3.org/TR/2001/REC-SVG-20010904/DTD/svg10.dtd">
<svg version="1.0" xmlns="http://www.w3.org/2000/svg"
 width="300.000000pt" height="200.000000pt" viewBox="0 0 300.000000 200.000000"
 preserveAspectRatio="xMidYMid meet">
<metadata>
Created by potrace 1.10, written by Peter Selinger 2001-2011
</metadata>
<g transform="translate(0.000000,200.000000) scale(0.100000,-0.100000)"
fill="#000000" stroke="none">
<path d="M1370 1593 c-120 -20 -387 -119 -402 -149 -2 -5 -1 -76 3 -159 13
-292 90 -496 254 -673 57 -62 198 -174 260 -208 l32 -17 79 54 c99 68 224 186
279 264 116 164 170 342 182 605 l6 135 -89 42 c-113 54 -186 79 -286 98 -73
14 -256 18 -318 8z m225 -13 c114 -12 219 -40 326 -85 118 -51 119 -52 119
-149 0 -237 -62 -463 -172 -625 -76 -111 -300 -301 -355 -301 -41 0 -185 107
-276 204 -158 169 -237 381 -252 671 -7 137 -6 139 70 177 119 59 237 94 364
107 42 5 78 9 81 9 3 1 46 -3 95 -8z"/>
<path d="M1368 1550 c-96 -16 -224 -59 -320 -107 l-47 -23 5 -83 c17 -288 65
-451 179 -612 54 -77 166 -182 256 -242 79 -53 72 -54 174 23 267 199 378 420
401 797 l7 115 -59 30 c-187 94 -414 133 -596 102z m351 -89 c40 -11 108 -34
151 -52 l77 -31 -5 -77 c-2 -42 -7 -101 -11 -131 l-6 -55 -23 47 c-13 26 -39
61 -58 77 -19 17 -34 32 -34 34 0 3 12 7 28 10 15 3 36 13 47 21 19 15 19 15
-8 16 -15 0 -56 14 -90 31 -88 45 -161 68 -245 79 -144 19 -287 -23 -332 -96
-11 -17 -31 -35 -44 -38 -14 -3 -38 -18 -55 -32 l-31 -26 0 70 0 69 58 26
c197 86 396 106 581 58z m-119 -76 c93 -20 237 -81 210 -88 -12 -3 -38 -3 -58
0 l-37 5 55 -39 c86 -61 128 -133 146 -253 l6 -45 -66 65 c-36 35 -66 61 -66
56 0 -4 11 -26 25 -49 38 -66 50 -138 35 -219 -13 -74 -30 -91 -30 -30 -1 50
-30 112 -70 145 -20 17 -30 33 -26 43 5 13 9 13 38 -2 l33 -17 -24 27 c-23 24
-101 76 -116 76 -3 0 2 -12 13 -27 11 -16 26 -47 33 -71 7 -26 15 -38 20 -31
9 15 29 -52 29 -97 0 -35 -27 -134 -41 -148 -5 -6 -9 1 -9 17 0 42 -24 90 -89
181 -71 98 -145 182 -175 198 -11 6 1 -13 28 -43 68 -75 103 -142 122 -229 23
-110 42 -164 65 -189 34 -36 16 -34 -48 8 -64 41 -93 85 -93 141 0 20 -4 29
-11 24 -8 -4 -10 -26 -6 -60 6 -59 24 -82 105 -130 23 -14 42 -28 42 -31 0
-16 -108 -93 -131 -93 -17 0 -151 101 -211 159 -37 36 -88 102 -88 113 0 6 7
7 16 4 20 -8 43 10 56 44 10 25 10 25 33 -20 30 -55 30 -52 5 28 -20 65 -26
117 -12 109 4 -3 15 22 26 55 l19 59 18 -28 c30 -45 24 2 -6 56 -17 29 -20 41
-11 38 10 -4 13 -1 9 9 -13 33 10 10 26 -27 16 -36 18 -59 14 -158 -5 -105 -4
-122 16 -166 22 -50 48 -85 62 -85 5 0 -6 23 -24 52 l-32 51 0 142 c0 117 -3
146 -18 168 -24 36 -21 42 9 22 14 -9 28 -14 31 -11 10 9 140 -93 167 -132 14
-21 40 -70 57 -108 l30 -69 -5 47 c-14 118 -102 224 -233 278 -108 45 -108 49
-3 25 l25 -6 -25 15 c-14 8 -38 16 -55 16 l-30 2 35 13 35 13 -57 1 c-32 1
-58 6 -58 11 0 6 7 10 15 10 9 0 25 16 36 35 13 21 29 35 41 35 10 0 16 5 13
10 -12 20 -62 9 -115 -24 -58 -37 -86 -34 -62 5 12 18 11 19 -6 10 -15 -8 -23
-7 -31 2 -16 20 47 76 111 98 65 22 177 24 268 4z m-370 -140 c0 -18 32 -43
75 -58 45 -16 55 -32 25 -40 -17 -4 -19 -9 -10 -31 12 -33 6 -33 -33 0 -27 23
-38 25 -93 22 -99 -5 -58 12 52 22 l99 9 -103 -4 c-106 -3 -132 -12 -132 -46
0 -26 -16 -24 -24 4 -19 72 6 116 81 142 39 14 63 6 63 -20z m40 -154 c14 -10
26 -30 28 -45 2 -14 8 -24 13 -21 14 9 12 3 -22 -69 -21 -45 -33 -89 -37 -133
l-5 -65 -33 53 c-67 107 -110 250 -86 285 18 28 99 25 142 -5z m690 5 c0 -14
-4 -27 -9 -31 -12 -7 -25 31 -16 45 11 18 25 10 25 -14z m-297 -355 c14 -32
31 -62 38 -67 16 -10 58 39 66 77 8 41 19 44 32 9 10 -29 7 -34 -49 -93 -57
-59 -61 -61 -75 -43 -13 17 -32 75 -49 149 -11 47 10 29 37 -32z"/>
<path d="M1666 1294 c51 -34 119 -99 155 -148 16 -21 29 -35 29 -30 -1 20 -28
55 -97 128 -55 57 -79 76 -99 76 -26 0 -25 -1 12 -26z"/>
<path d="M1530 1155 c19 -9 44 -23 55 -33 11 -9 14 -10 8 -2 -18 20 -16 30 5
24 15 -5 15 -4 1 5 -9 6 -36 13 -60 16 l-44 6 35 -16z"/>
<path d="M1730 1130 c11 -16 32 -53 46 -82 14 -29 22 -44 19 -33 -4 11 -9 35
-12 54 -6 32 -5 34 20 29 48 -9 3 25 -69 52 l-25 10 21 -30z"/>
<path d="M1464 985 c3 -9 17 -57 30 -108 25 -92 44 -150 45 -133 2 17 -42 190
-55 223 -14 32 -32 48 -20 18z"/>
<path d="M1341 930 c0 -19 4 -44 9 -55 7 -16 9 -13 9 15 0 19 -4 44 -9 55 -7
16 -9 13 -9 -15z"/>
<path d="M1336 833 c12 -66 23 -83 21 -32 -1 25 -8 52 -15 59 -11 10 -12 5 -6
-27z"/>
</g>
</svg>
